<?xml version="1.0" standalone="no"?>
<!DOCTYPE svg PUBLIC "-//W3C//DTD SVG 20010904//EN"
 "http://www.w3.org/TR/2001/REC-SVG-20010904/DTD/svg10.dtd">
<svg version="1.0" xmlns="http://www.w3.org/2000/svg"
 width="479.000000pt" height="521.000000pt" viewBox="0 0 479.000000 521.000000"
 preserveAspectRatio="xMidYMid meet">

<g transform="translate(0.000000,521.000000) scale(0.100000,-0.100000)"
fill="#000000" stroke="none">
<path d="M2607 5109 c-122 -29 -204 -120 -215 -241 -4 -50 -2 -64 17 -88 l21
-30 -27 -5 c-49 -10 -78 -30 -98 -68 -16 -29 -29 -40 -60 -47 -63 -16 -174
-71 -227 -113 -27 -21 -78 -75 -113 -119 -52 -66 -69 -81 -94 -83 -17 -2 -36
4 -42 12 -9 10 -14 11 -19 3 -5 -8 -9 -6 -13 5 -4 9 -3 13 3 10 14 -9 12 8 -2
25 -11 12 -10 12 4 1 15 -11 19 -11 24 3 3 9 1 23 -5 30 -9 11 -9 16 0 22 8 4
9 3 5 -4 -4 -7 -2 -12 3 -12 14 0 14 13 -1 28 -9 9 -8 12 6 12 12 0 16 5 12
15 -7 20 4 46 17 38 6 -3 7 -1 3 5 -14 23 99 153 199 229 42 32 137 83 202
108 31 13 33 14 8 10 -40 -8 -158 -68 -215 -110 -76 -56 -185 -178 -235 -262
-38 -66 -66 -130 -109 -248 -7 -18 -10 -16 -27 16 -27 54 -95 107 -158 126
-72 20 -181 14 -237 -15 -183 -94 -228 -420 -83 -608 46 -60 116 -101 209
-124 l65 -16 7 -45 c4 -24 26 -81 48 -126 49 -100 131 -185 242 -251 43 -26
78 -49 78 -52 0 -3 -25 -23 -56 -45 -122 -87 -264 -204 -357 -294 -96 -93
-153 -156 -313 -351 -133 -161 -271 -297 -330 -326 -30 -14 -60 -24 -68 -21
-31 12 -3 -22 31 -38 29 -14 43 -15 72 -7 19 6 36 10 37 9 1 -1 -3 -23 -8 -49
-12 -53 3 -128 25 -128 15 0 53 24 90 58 l27 26 0 -55 c0 -52 12 -90 25 -78 3
4 11 26 18 49 7 24 17 45 23 47 6 2 21 -25 33 -59 17 -48 21 -54 17 -26 l-4
36 31 -18 32 -19 -3 39 c-2 22 1 69 7 104 25 145 78 263 177 391 68 90 255
273 364 357 91 70 188 133 195 126 5 -5 -95 -168 -140 -228 -85 -112 -150
-217 -177 -287 -96 -247 -73 -464 68 -643 26 -33 51 -60 55 -60 19 0 6 -31
-57 -136 -133 -220 -254 -506 -254 -600 0 -55 27 -102 74 -127 37 -19 61 -22
261 -27 201 -5 224 -8 262 -28 44 -23 51 -36 64 -117 l8 -50 -3 59 c-3 55 -2
57 11 32 7 -14 18 -26 24 -26 14 0 3 67 -17 97 -18 29 -18 33 4 33 10 0 43 7
73 16 l54 16 -50 23 -50 23 50 22 c28 13 61 31 74 41 32 25 38 24 57 -12 12
-24 15 -54 12 -130 -1 -55 1 -99 5 -99 5 0 6 -4 3 -9 -4 -5 -10 -72 -15 -148
-6 -76 -13 -146 -17 -156 -3 -10 -23 -27 -43 -37 -20 -11 -58 -40 -86 -66 -65
-60 -125 -87 -195 -88 -69 0 -156 29 -172 57 -36 69 -23 154 34 216 18 19 23
27 11 17 -12 -10 -26 -15 -32 -11 -6 3 -9 0 -5 -8 3 -8 -2 -19 -10 -26 -8 -7
-20 -36 -26 -64 -10 -43 -9 -60 3 -96 15 -42 15 -45 -6 -62 -29 -24 -100 -24
-152 0 -50 22 -105 84 -105 117 0 40 38 102 82 134 22 17 37 30 33 30 -4 0
-24 -12 -44 -27 -20 -16 -39 -27 -43 -25 -5 1 -7 -1 -6 -6 0 -4 -9 -28 -21
-54 -11 -25 -24 -67 -27 -92 -7 -47 -18 -56 -62 -48 -37 7 -92 65 -92 97 0 32
45 115 62 115 6 0 9 3 5 6 -11 12 -75 -36 -87 -66 -29 -71 11 -169 83 -204 40
-18 105 -21 139 -5 19 8 40 5 103 -16 84 -29 138 -28 182 0 19 13 28 12 79
-12 49 -22 72 -26 146 -26 84 0 91 2 174 44 57 29 98 57 118 82 l31 39 1 216
c0 127 5 236 12 262 17 66 15 109 -8 145 -28 45 -80 68 -141 63 -48 -5 -49 -5
-42 21 6 25 5 25 -14 8 -29 -25 -63 -21 -202 24 -69 22 -150 43 -178 46 -29 3
-53 10 -53 15 0 12 169 276 223 348 23 30 42 57 43 59 2 1 31 -7 65 -19 35
-12 103 -29 151 -39 49 -10 90 -20 91 -22 1 -2 19 -38 39 -79 59 -118 176
-225 291 -266 71 -26 185 -44 270 -44 73 1 259 27 312 44 19 7 19 6 2 -6 -10
-7 -55 -39 -99 -71 -97 -71 -139 -90 -182 -82 -30 7 -30 6 -14 -11 12 -12 37
-19 78 -22 l60 -4 -30 -35 c-50 -56 -40 -65 35 -32 25 11 49 19 51 16 2 -2 -3
-20 -11 -40 -19 -47 -20 -107 -1 -107 8 0 17 11 20 25 6 23 42 65 57 65 4 0 5
-39 3 -87 -1 -49 -1 -78 2 -65 4 18 9 21 18 12 11 -8 15 -2 19 28 9 54 57 105
199 213 145 110 214 176 234 224 24 58 18 116 -20 189 -33 63 -34 66 -17 88
36 48 90 145 111 200 12 33 32 65 47 76 20 14 23 21 13 27 -9 6 -11 4 -5 -5 6
-10 4 -12 -8 -7 -10 4 -17 1 -17 -6 0 -9 -2 -9 -8 0 -4 7 -26 -17 -57 -63 -55
-82 -99 -117 -142 -112 -47 5 -36 52 36 151 34 47 61 88 61 93 0 20 58 95 85
110 23 12 34 29 49 75 10 33 24 58 30 56 6 -2 16 -23 23 -47 7 -23 15 -45 18
-49 13 -12 25 26 25 78 l0 55 28 -26 c36 -34 74 -58 89 -58 22 0 37 75 25 128
-5 26 -9 48 -8 49 1 1 18 -3 37 -9 29 -8 43 -7 72 7 44 21 46 31 10 40 -52 12
-108 53 -189 137 -110 111 -247 274 -256 301 -3 12 -6 56 -7 97 -1 119 31 217
100 304 l41 51 -42 -45 c-70 -76 -110 -177 -110 -277 0 -39 -3 -52 -12 -47 -8
5 -9 0 -5 -17 l6 -24 -19 24 c-11 12 -17 28 -13 34 3 6 1 7 -5 3 -13 -8 -92
71 -92 93 0 7 13 53 30 102 31 93 79 178 134 239 29 33 29 33 2 10 -63 -55
-139 -193 -167 -303 -6 -26 -14 -47 -16 -47 -3 0 -47 40 -98 88 -51 48 -133
119 -183 157 -50 39 -91 72 -91 75 0 3 29 23 65 45 77 47 163 135 206 212 23
41 35 53 47 48 73 -30 108 -37 165 -33 121 10 211 81 279 221 45 89 59 149 59
252 1 141 -50 212 -170 233 -86 15 -147 -3 -214 -66 l-28 -26 0 106 c0 114
-16 218 -49 311 -68 195 -238 354 -469 440 -83 31 -94 33 -67 13 11 -8 23 -12
27 -10 4 2 9 0 13 -6 3 -5 13 -10 20 -10 13 0 70 -26 163 -75 49 -26 163 -135
160 -154 -2 -8 3 -16 11 -16 17 0 50 -55 43 -72 -2 -7 3 -15 11 -19 9 -3 13
-12 10 -21 -4 -9 -2 -14 3 -11 5 4 9 -4 10 -15 0 -12 4 -39 8 -59 10 -49 -4
-50 -46 -3 -36 41 -46 40 -24 -4 23 -44 20 -49 -7 -10 -51 75 -144 157 -224
197 -53 27 -183 73 -182 64 4 -21 -5 -33 -38 -54 -21 -12 -42 -21 -48 -20 -5
2 -7 0 -3 -4 4 -4 -2 -15 -13 -25 -11 -9 -20 -20 -20 -23 2 -18 0 -19 -9 -6
-7 12 -9 11 -9 -5 -1 -39 -13 -95 -21 -95 -13 0 -21 66 -11 94 13 34 5 55 -19
49 -20 -5 -64 -57 -88 -103 -21 -39 -32 -113 -20 -128 8 -9 8 -16 1 -23 -14
-14 -66 31 -87 76 -16 33 -16 39 -1 93 9 31 19 69 22 83 3 16 16 32 31 40 23
11 24 13 8 17 -32 7 -104 -28 -141 -70 -46 -51 -63 -91 -66 -156 -2 -29 -4
-52 -6 -52 -2 0 -16 11 -30 25 -23 20 -28 35 -31 87 -3 52 1 71 20 108 36 67
82 92 223 125 l30 7 -25 13 c-14 8 -49 19 -78 25 -43 10 -61 9 -102 -5 -27 -9
-61 -26 -76 -38 l-28 -21 18 30 c26 43 73 72 140 85 41 9 67 9 92 1 46 -14 43
-2 -12 39 -25 19 -55 52 -66 73 -51 100 18 232 137 260 17 4 38 9 49 13 15 4
13 -3 -12 -33 -28 -36 -61 -121 -43 -109 5 2 11 18 14 34 4 17 22 48 42 69 19
22 35 42 35 46 0 8 -26 6 -73 -5z m-344 -525 l-6 -36 45 32 c36 26 57 32 109
36 60 4 62 3 31 -9 -50 -19 -102 -66 -119 -105 -20 -48 -19 -141 1 -181 15
-28 68 -71 89 -71 4 0 7 15 7 33 0 71 47 159 100 187 18 10 18 9 5 -25 -21
-48 -19 -104 5 -142 22 -37 49 -57 108 -77 43 -15 43 -15 35 7 -13 38 -6 94
18 137 l24 42 16 -40 c17 -38 51 -72 75 -72 7 0 9 16 6 48 -4 44 -1 53 27 85
40 44 86 61 160 55 111 -9 227 -92 282 -203 26 -53 32 -80 37 -155 7 -121 -13
-256 -52 -362 l-33 -87 27 -6 c43 -10 106 -70 126 -120 20 -54 15 -152 -11
-192 -12 -17 -13 -23 -4 -18 8 3 5 -1 -5 -9 -11 -9 -17 -16 -13 -16 4 0 0 -11
-9 -25 -9 -14 -21 -22 -27 -18 -5 3 -8 2 -4 -3 3 -5 -1 -20 -9 -34 l-15 -25 5
25 6 25 -13 -26 c-7 -15 -18 -24 -26 -21 -10 3 -12 0 -8 -11 8 -21 -3 -29 -20
-15 -7 6 -16 8 -20 4 -3 -3 -1 -6 5 -6 7 0 12 -7 12 -15 0 -15 -68 -62 -82
-57 -5 1 -8 -5 -8 -13 0 -14 -12 -19 -32 -16 -5 0 -8 -4 -8 -11 0 -6 -3 -8 -7
-5 -3 4 -13 1 -22 -6 -42 -36 -228 -77 -348 -77 -65 0 -223 17 -231 25 -2 2 6
21 18 44 11 23 16 41 10 41 -5 0 -19 -18 -30 -39 -24 -47 -56 -74 -117 -97
-44 -17 -47 -17 -82 2 -36 19 -68 70 -90 144 -10 32 -10 30 -5 -18 l5 -53 -38
7 c-99 17 -206 46 -258 69 -32 14 -63 25 -69 25 -19 0 -181 110 -178 121 1 6
-2 8 -8 4 -6 -3 -25 9 -43 27 -44 46 -105 125 -86 113 8 -5 6 -2 -4 8 -11 9
-16 17 -12 17 3 0 -1 7 -9 16 -9 8 -16 24 -16 35 0 10 -4 19 -8 19 -12 0 -32
92 -32 143 0 90 89 217 178 254 20 8 64 14 101 14 40 0 61 3 52 8 -30 19 60
292 141 429 76 129 242 257 350 271 4 1 4 -15 1 -35z m-827 -229 c18 -14 17
-14 -16 -15 -64 0 -114 -21 -154 -63 -49 -51 -74 -107 -89 -200 -9 -53 -16
-73 -29 -75 -12 -2 -19 7 -25 35 -24 119 35 253 136 305 61 32 144 38 177 13z
m370 -73 c-17 -16 -18 -16 -5 5 7 12 15 20 18 17 3 -2 -3 -12 -13 -22z m-359
-27 c41 -41 40 -52 -12 -144 -49 -87 -53 -121 -22 -173 31 -54 22 -79 -38
-108 -108 -53 -158 2 -159 175 0 127 40 219 119 266 44 28 72 24 112 -16z
m-280 -287 c-3 -8 -6 -5 -6 6 -1 11 2 17 5 13 3 -3 4 -12 1 -19z m-20 -10 c-3
-8 -6 -5 -6 6 -1 11 2 17 5 13 3 -3 4 -12 1 -19z m2593 -108 c83 -59 75 -252
-15 -358 -53 -63 -147 -92 -172 -53 -19 31 -26 87 -14 123 6 18 13 49 15 68 6
48 16 71 28 64 6 -4 7 2 3 16 -4 14 -3 20 3 16 9 -5 26 29 23 47 -1 5 3 6 8 3
5 -4 13 4 17 16 11 36 44 78 61 78 8 0 28 -9 43 -20z m-1916 -731 c-4 -8 0 -9
15 -4 12 4 21 2 21 -4 0 -6 9 -11 21 -11 24 0 59 -17 59 -29 0 -5 -10 -8 -22
-7 -13 0 -22 -4 -21 -10 1 -7 -4 -11 -11 -10 -7 0 -23 -7 -37 -16 -13 -10 -60
-41 -104 -69 -44 -29 -92 -63 -107 -77 -26 -24 -26 -24 -33 -3 -3 12 -11 21
-16 21 -6 0 -7 -4 -4 -10 3 -5 1 -10 -4 -10 -16 0 -13 16 4 30 12 10 16 8 23
-11 6 -15 11 -19 16 -10 4 6 3 17 -2 24 -7 8 -1 22 20 47 17 19 27 28 22 20
-4 -8 12 4 37 28 24 24 57 50 72 58 15 8 25 19 22 25 -4 5 -1 8 6 7 7 -2 14 3
15 10 3 19 4 22 10 22 3 0 2 -5 -2 -11z m1236 -100 c-12 -8 -10 -9 6 -5 15 5
31 -4 57 -29 20 -20 37 -40 37 -45 0 -6 7 -10 15 -10 21 0 19 -17 -2 -24 -10
-3 -3 -4 15 -2 17 1 32 -1 32 -6 0 -4 -5 -8 -11 -8 -5 0 -7 -5 -3 -11 15 -25
-21 -28 -46 -4 -33 31 -87 70 -127 91 -18 9 -30 20 -27 25 3 5 -2 9 -11 9 -9
0 -13 5 -10 10 4 6 16 8 27 4 13 -4 18 -2 14 4 -3 6 4 12 16 14 29 5 36 0 18
-13z m-804 -76 c-3 11 -2 16 4 12 12 -8 13 -45 1 -45 -5 0 -14 7 -21 15 -7 8
-22 15 -34 14 -19 -1 -18 -2 4 -8 17 -5 21 -9 12 -15 -6 -4 -18 -4 -24 0 -7 4
-10 3 -5 -1 4 -5 -5 -22 -20 -38 l-28 -30 42 27 c50 31 53 31 54 9 1 -17 2
-17 6 0 2 9 9 17 14 17 6 0 7 -9 4 -20 -3 -11 -3 -20 0 -20 11 0 110 54 113
63 2 4 10 7 18 7 8 0 13 -3 13 -7 -4 -28 3 -64 16 -77 8 -8 15 -21 15 -28 0
-10 3 -9 10 2 8 13 11 12 25 -5 14 -19 15 -18 3 8 -7 16 -17 26 -25 23 -17 -7
-17 -2 6 35 l19 32 21 -41 c25 -49 41 -60 53 -38 5 9 14 14 20 10 7 -4 7 0 -1
13 -7 15 -6 25 4 40 8 11 11 23 8 27 -3 3 -1 6 6 6 8 0 10 -7 5 -22 -10 -31
-10 -107 0 -137 7 -20 5 -23 -8 -18 -9 4 -16 2 -16 -3 0 -6 6 -10 14 -10 8 0
22 -3 32 -7 17 -6 17 -5 1 17 -39 55 -6 127 42 94 12 -9 21 -11 21 -5 0 6 -4
11 -10 11 -5 0 -10 7 -10 16 0 12 6 11 28 -8 21 -16 25 -24 14 -26 -10 -3 -12
-12 -8 -35 l6 -30 -36 37 c-20 20 -39 35 -42 31 -9 -9 51 -66 85 -81 45 -19
47 -18 24 12 -29 37 -26 50 7 29 101 -66 232 -216 293 -337 47 -93 70 -197 70
-313 -1 -355 -161 -582 -471 -667 -74 -20 -107 -23 -260 -23 -149 1 -188 4
-260 23 -233 61 -411 207 -475 387 -26 76 -31 232 -10 335 37 180 131 347 270
478 80 76 84 85 11 28 -46 -35 -39 -17 19 55 70 87 113 124 167 143 29 9 56
16 59 14 4 -2 15 4 25 13 27 24 57 27 72 9 12 -13 13 -13 8 3z m361 -63 c2
-19 -8 -26 -20 -14 -7 7 2 34 12 34 4 0 7 -9 8 -20z m471 -114 c61 -45 167
-139 247 -220 l140 -141 33 -120 c58 -217 66 -390 23 -557 -22 -85 -84 -228
-99 -228 -5 0 -17 11 -26 25 -17 25 -85 101 -195 217 l-64 68 24 77 c20 66 24
99 24 213 0 114 -4 148 -24 215 -33 109 -104 260 -183 385 -36 58 -69 116 -73
130 -18 67 -21 64 24 38 23 -12 90 -58 149 -102z m-1525 92 c3 -10 7 -10 20 1
10 7 17 10 17 6 0 -4 -8 -13 -17 -20 -13 -10 -19 -10 -30 1 -15 15 -17 24 -4
24 5 0 11 -6 14 -12z m1681 -12 c-7 -18 -20 -21 -29 -6 -3 6 1 10 9 10 9 0 16
5 16 12 0 6 2 9 5 6 3 -3 3 -13 -1 -22z m60 -14 c3 -5 -1 -9 -9 -9 -8 0 -12 4
-9 9 3 4 7 8 9 8 2 0 6 -4 9 -8z m-1784 -8 c0 -8 -19 -13 -24 -6 -3 5 1 9 9 9
8 0 15 -2 15 -3z m1650 -1114 c8 -5 11 -10 5 -10 -5 0 -17 5 -25 10 -8 5 -10
10 -5 10 6 0 17 -5 25 -10z m106 -87 c48 -64 96 -113 106 -107 5 3 7 2 6 -3
-2 -5 9 -21 25 -36 15 -15 27 -32 27 -36 0 -5 16 -26 35 -47 34 -37 110 -152
110 -166 0 -3 3 -10 8 -14 12 -12 8 -74 -5 -87 -7 -7 -24 -13 -38 -14 -14 -1
-19 1 -12 3 21 9 13 27 -10 21 -26 -7 -49 9 -41 29 3 8 0 14 -6 14 -5 0 -19 9
-30 21 -11 13 -24 18 -32 14 -8 -6 -10 -4 -4 5 5 8 0 19 -12 29 -12 9 -58 59
-103 111 -45 52 -107 121 -137 153 -46 47 -52 57 -34 57 14 0 21 6 21 20 0 11
5 20 10 20 6 0 10 -4 10 -10 0 -5 5 -10 11 -10 8 0 8 4 0 14 -10 12 -8 19 8
35 12 12 21 26 21 31 0 19 35 -7 66 -47z m-162 1 c3 -8 2 -12 -4 -9 -6 3 -10
10 -10 16 0 14 7 11 14 -7z m-34 -250 c87 -79 120 -113 120 -123 0 -13 -130
-68 -188 -80 -153 -32 -292 -3 -413 85 -41 30 -99 101 -99 121 0 5 50 18 111
30 80 15 136 33 202 66 l92 44 55 -42 c30 -23 84 -69 120 -101z m-1494 4 c5
-7 2 -9 -7 -4 -8 4 -5 0 5 -8 19 -15 19 -16 1 -16 -10 0 -15 -3 -11 -7 4 -5
11 -7 14 -7 11 2 34 -35 27 -45 -3 -5 -1 -12 5 -16 5 -3 7 -18 4 -32 -5 -20
-4 -24 6 -18 10 6 11 4 6 -11 -5 -10 -13 -32 -18 -49 -6 -16 -16 -36 -21 -43
-6 -8 -26 -46 -43 -85 -29 -64 -36 -72 -63 -75 -26 -3 -33 2 -43 25 -7 15 -18
34 -25 41 -7 7 -13 19 -13 25 0 12 160 337 166 337 1 0 6 -5 10 -12z m-166
-372 c0 -3 -4 -8 -10 -11 -5 -3 -10 -1 -10 4 0 6 5 11 10 11 6 0 10 -2 10 -4z"/>
<path d="M2069 4310 c-110 -58 -181 -228 -149 -359 6 -28 16 -54 21 -57 5 -3
4 7 -1 21 -15 39 -12 164 5 222 10 33 32 70 61 102 54 60 71 70 133 81 l46 8
-40 0 c-22 1 -56 -7 -76 -18z"/>
<path d="M2250 4289 c0 -3 8 -21 18 -40 28 -56 23 -179 -11 -254 -42 -89 -112
-155 -167 -155 -11 0 -20 -4 -20 -9 0 -5 18 -4 40 1 54 14 124 83 158 156 23
49 27 70 27 147 0 76 -3 96 -22 125 -13 19 -23 32 -23 29z"/>
<path d="M2065 4208 c-119 -104 -106 -318 20 -318 66 0 147 88 159 175 3 22 3
33 -1 25 -20 -52 -63 -64 -89 -25 -33 50 4 141 54 132 l23 -4 -22 23 c-35 37
-98 33 -144 -8z"/>
<path d="M2833 4219 c-50 -24 -106 -96 -135 -172 -34 -88 -25 -229 17 -282 12
-15 11 -11 -2 15 -14 27 -18 59 -18 140 0 91 3 111 24 150 50 93 90 129 174
156 39 12 40 13 12 13 -16 1 -49 -8 -72 -20z"/>
<path d="M3045 4135 c30 -57 41 -155 26 -226 -24 -115 -112 -214 -199 -226
-23 -3 -42 -9 -42 -13 0 -4 -13 -13 -30 -20 -16 -7 -30 -16 -30 -21 0 -5 15 1
34 12 31 18 104 41 186 59 25 5 28 8 12 9 -24 1 -24 1 7 40 50 63 74 128 79
212 5 86 -15 174 -47 203 -17 15 -16 12 4 -29z"/>
<path d="M2884 4143 c-38 -7 -100 -70 -124 -125 -48 -111 -25 -223 53 -261 46
-23 91 -11 139 36 99 100 102 301 4 342 -20 8 -39 14 -43 14 -4 -1 -18 -4 -29
-6z m92 -81 c38 -25 46 -120 14 -152 -26 -26 -44 -25 -70 2 -39 42 -18 158 28
158 9 0 22 -4 28 -8z"/>
<path d="M1798 3903 c6 -2 18 -2 25 0 6 3 1 5 -13 5 -14 0 -19 -2 -12 -5z"/>
<path d="M1848 3893 c7 -3 16 -2 19 1 4 3 -2 6 -13 5 -11 0 -14 -3 -6 -6z"/>
<path d="M1924 3868 c10 -6 22 -6 26 -2 5 5 -3 10 -18 11 -22 1 -24 0 -8 -9z"/>
<path d="M2016 3824 c32 -19 70 -45 84 -57 19 -17 21 -18 10 -3 -17 22 -128
96 -143 96 -6 0 16 -16 49 -36z"/>
<path d="M2223 3738 c-26 -28 -48 -73 -57 -113 -3 -17 6 -4 23 31 16 34 38 71
50 83 11 11 17 21 13 21 -5 0 -18 -10 -29 -22z"/>
<path d="M2284 3744 c9 -8 17 -25 17 -37 1 -16 2 -18 6 -5 5 20 -13 58 -28 58
-6 0 -3 -7 5 -16z"/>
<path d="M3048 3713 c12 -2 32 -2 45 0 12 2 2 4 -23 4 -25 0 -35 -2 -22 -4z"/>
<path d="M3143 3703 c9 -2 23 -2 30 0 6 3 -1 5 -18 5 -16 0 -22 -2 -12 -5z"/>
<path d="M2256 3685 c4 -8 0 -22 -7 -31 -7 -8 -18 -36 -25 -62 -11 -45 -12
-46 -22 -22 -7 16 -11 19 -11 9 -1 -22 23 -41 42 -33 30 11 52 133 27 149 -6
3 -7 -1 -4 -10z"/>
<path d="M2619 3687 c-15 -12 -64 -97 -55 -97 2 0 16 20 30 45 15 24 34 49 44
54 9 6 13 10 7 10 -5 0 -17 -5 -26 -12z"/>
<path d="M3198 3693 c7 -3 16 -2 19 1 4 3 -2 6 -13 5 -11 0 -14 -3 -6 -6z"/>
<path d="M2673 3675 c20 -20 30 -86 23 -143 -5 -38 -4 -43 5 -28 7 12 10 45 7
87 -5 65 -19 99 -40 99 -5 0 -3 -7 5 -15z"/>
<path d="M2300 3670 c0 -5 5 -10 10 -10 6 0 10 5 10 10 0 6 -4 10 -10 10 -5 0
-10 -4 -10 -10z"/>
<path d="M2647 3619 c10 -9 10 -16 1 -26 -6 -8 -17 -35 -24 -61 -12 -45 -12
-46 -23 -22 -7 17 -10 19 -8 6 1 -10 10 -24 20 -30 15 -9 21 -6 37 14 36 47
37 111 2 125 -13 5 -14 4 -5 -6z"/>
<path d="M2365 3484 c-35 -18 -85 -63 -85 -77 0 -5 20 9 44 31 25 23 55 44 68
46 13 3 32 7 43 9 13 3 9 5 -10 6 -16 0 -43 -6 -60 -15z"/>
<path d="M2498 3449 c7 -9 17 -43 22 -75 l9 -59 -3 58 c-2 41 -8 63 -21 75
-16 14 -17 14 -7 1z"/>
<path d="M2359 3329 c-50 -53 -84 -208 -57 -259 17 -31 62 -39 88 -15 59 53
100 228 66 280 -23 35 -61 33 -97 -6z"/>
<path d="M3035 2991 c-3 -5 -2 -12 3 -15 5 -3 9 1 9 9 0 17 -3 19 -12 6z"/>
<path d="M3175 2880 c-3 -5 -1 -10 4 -10 6 0 11 5 11 10 0 6 -2 10 -4 10 -3 0
-8 -4 -11 -10z"/>
<path d="M2377 2873 c-10 -9 -9 -23 2 -23 5 0 11 7 15 15 5 15 -5 20 -17 8z"/>
<path d="M2110 2840 c-8 -5 -10 -10 -5 -10 6 0 17 5 25 10 8 5 11 10 5 10 -5
0 -17 -5 -25 -10z"/>
<path d="M2004 2775 c-10 -8 -14 -15 -8 -15 6 0 17 7 24 15 16 19 9 19 -16 0z"/>
<path d="M3230 1651 c0 -6 4 -13 10 -16 6 -3 7 1 4 9 -7 18 -14 21 -14 7z"/>
<path d="M3206 1622 c-2 -4 4 -8 14 -8 10 0 16 4 14 8 -3 4 -9 8 -14 8 -5 0
-11 -4 -14 -8z"/>
<path d="M3508 1153 c7 -3 16 -2 19 1 4 3 -2 6 -13 5 -11 0 -14 -3 -6 -6z"/>
<path d="M2592 4925 c0 -16 2 -22 5 -12 2 9 2 23 0 30 -3 6 -5 -1 -5 -18z"/>
<path d="M2343 4883 c9 -2 23 -2 30 0 6 3 -1 5 -18 5 -16 0 -22 -2 -12 -5z"/>
<path d="M2609 4872 c25 -48 127 -103 164 -89 7 3 -1 8 -18 12 -45 12 -102 42
-117 63 -7 10 -19 22 -26 26 -11 7 -12 4 -3 -12z"/>
<path d="M2265 4870 c-25 -11 1 -11 35 0 20 6 21 8 5 8 -11 0 -29 -3 -40 -8z"/>
<path d="M2703 4863 c9 -2 23 -2 30 0 6 3 -1 5 -18 5 -16 0 -22 -2 -12 -5z"/>
<path d="M2778 4853 c7 -3 16 -2 19 1 4 3 -2 6 -13 5 -11 0 -14 -3 -6 -6z"/>
<path d="M2875 4830 c-3 -6 1 -7 9 -4 18 7 21 14 7 14 -6 0 -13 -4 -16 -10z"/>
<path d="M1850 4381 c0 -6 4 -13 10 -16 6 -3 7 1 4 9 -7 18 -14 21 -14 7z"/>
<path d="M4261 3165 c52 -59 72 -114 76 -205 3 -69 -1 -97 -19 -150 -25 -70
-50 -89 -101 -76 -64 16 -73 67 -27 149 17 30 30 60 29 68 0 8 -6 3 -12 -11
-6 -14 -18 -31 -27 -38 -8 -8 -9 -10 -2 -7 11 6 11 3 1 -12 -12 -20 -39 -27
-39 -11 0 4 6 8 13 8 8 0 15 6 16 13 13 89 12 107 -9 137 -20 28 -68 61 -87
60 -4 -1 9 -10 29 -21 46 -24 72 -70 65 -114 -3 -18 -26 -62 -51 -99 -25 -37
-46 -78 -46 -92 0 -37 25 -78 55 -92 115 -53 227 76 228 263 1 67 -4 90 -27
142 -15 33 -42 74 -59 90 l-32 28 26 -30z m-121 -321 c0 -8 -4 -12 -10 -9 -5
3 -10 1 -10 -6 0 -7 -3 -9 -6 -6 -4 4 -1 13 6 22 16 19 20 19 20 -1z"/>
<path d="M3709 3143 c-13 -16 -12 -17 4 -4 16 13 21 21 13 21 -2 0 -10 -8 -17
-17z"/>
<path d="M3998 3093 c12 -2 32 -2 45 0 12 2 2 4 -23 4 -25 0 -35 -2 -22 -4z"/>
<path d="M3948 3083 c7 -3 16 -2 19 1 4 3 -2 6 -13 5 -11 0 -14 -3 -6 -6z"/>
<path d="M488 2013 c23 -2 59 -2 80 0 20 2 1 4 -43 4 -44 0 -61 -2 -37 -4z"/>
<path d="M4228 2013 c23 -2 59 -2 80 0 20 2 1 4 -43 4 -44 0 -61 -2 -37 -4z"/>
<path d="M368 2003 c6 -2 18 -2 25 0 6 3 1 5 -13 5 -14 0 -19 -2 -12 -5z"/>
<path d="M318 1993 c7 -3 16 -2 19 1 4 3 -2 6 -13 5 -11 0 -14 -3 -6 -6z"/>
<path d="M278 1983 c7 -3 16 -2 19 1 4 3 -2 6 -13 5 -11 0 -14 -3 -6 -6z"/>
<path d="M4505 1980 c11 -5 27 -9 35 -9 9 0 8 4 -5 9 -11 5 -27 9 -35 9 -9 0
-8 -4 5 -9z"/>
<path d="M145 1929 c-24 -22 -35 -40 -35 -59 0 -32 23 -60 48 -60 12 0 9 4 -8
13 -17 8 -25 22 -27 42 -2 33 9 50 52 77 17 10 25 18 18 18 -7 0 -28 -14 -48
-31z"/>
<path d="M4615 1942 c17 -11 36 -26 43 -35 21 -25 11 -70 -18 -84 -17 -9 -20
-13 -8 -13 25 0 48 28 48 60 0 19 -11 37 -35 59 -20 17 -41 31 -48 31 -7 0 2
-8 18 -18z"/>
<path d="M518 1913 c6 -2 18 -2 25 0 6 3 1 5 -13 5 -14 0 -19 -2 -12 -5z"/>
<path d="M4248 1913 c6 -2 18 -2 25 0 6 3 1 5 -13 5 -14 0 -19 -2 -12 -5z"/>
<path d="M460 1900 c-18 -12 -2 -12 25 0 13 6 15 9 5 9 -8 0 -22 -4 -30 -9z"/>
<path d="M4328 1892 c41 -16 130 -99 175 -162 12 -18 15 -19 8 -4 -6 12 -26
40 -46 63 -19 24 -33 46 -30 51 5 9 -115 70 -136 69 -8 0 5 -8 29 -17z"/>
<path d="M388 1866 c-21 -12 -36 -25 -33 -28 3 -3 -11 -25 -30 -49 -48 -56
-85 -131 -85 -168 0 -34 29 -66 68 -76 23 -6 33 0 65 35 20 24 37 48 37 54 0
7 14 25 32 42 l32 29 -19 -30 c-40 -63 -68 -132 -73 -176 -4 -40 -1 -48 19
-63 30 -20 78 -21 107 0 21 15 22 14 22 -14 0 -39 28 -62 76 -62 48 0 81 31
135 125 19 32 53 79 77 102 23 24 33 39 23 33 -11 -6 -37 -32 -58 -58 -79 -98
-159 -172 -186 -172 -35 0 -58 33 -47 68 24 84 101 201 153 232 18 11 69 34
115 51 45 18 80 34 77 37 -6 6 -116 -33 -175 -63 -51 -26 -82 -58 -132 -132
-19 -29 -38 -50 -42 -46 -4 4 -4 0 -1 -9 4 -9 0 -18 -10 -22 -11 -4 -14 -2 -9
6 4 6 -11 -3 -33 -21 -26 -21 -49 -31 -64 -29 -22 3 -24 7 -23 56 2 43 10 67
46 130 50 86 121 145 212 177 28 10 56 22 61 27 9 9 -113 -34 -138 -48 -58
-33 -161 -125 -191 -169 -27 -41 -40 -53 -56 -50 -11 2 -22 0 -25 -5 -3 -5
-16 -5 -30 2 -13 6 -22 14 -20 19 3 4 1 10 -4 13 -11 7 0 60 20 98 21 40 100
132 134 157 40 28 20 26 -27 -3z"/>
<path d="M4060 1852 c0 -4 28 -16 61 -26 138 -43 267 -198 269 -321 0 -45 -16
-57 -56 -40 -18 7 -36 10 -40 7 -4 -4 -4 -2 0 5 6 12 -9 26 -32 29 -17 3 -11
-4 -57 69 -50 80 -81 112 -135 140 -59 30 -169 69 -175 63 -3 -3 32 -19 77
-37 110 -41 140 -61 182 -118 72 -98 103 -192 74 -221 -35 -35 -95 9 -221 162
-21 25 -47 51 -58 56 -11 6 0 -9 23 -33 24 -23 58 -70 77 -102 55 -96 87 -125
136 -125 49 0 75 23 75 64 0 28 0 28 25 12 34 -22 88 -21 110 4 31 34 7 128
-60 235 l-19 30 32 -29 c18 -17 32 -35 32 -42 0 -6 17 -31 38 -54 31 -35 42
-42 63 -37 62 16 87 80 54 137 l-15 25 6 -30 c3 -16 7 -36 10 -43 7 -23 -35
-54 -69 -50 -37 3 -42 7 -85 69 -25 38 -123 121 -179 153 -29 16 -143 55 -143
48z"/>
<path d="M228 1813 c6 -2 18 -2 25 0 6 3 1 5 -13 5 -14 0 -19 -2 -12 -5z"/>
<path d="M4538 1813 c6 -2 18 -2 25 0 6 3 1 5 -13 5 -14 0 -19 -2 -12 -5z"/>
<path d="M1124 1784 c16 -16 37 -47 46 -69 10 -22 40 -69 66 -105 79 -106 93
-150 51 -158 -52 -10 -97 24 -161 125 -40 62 -91 110 -65 61 10 -20 10 -21 -2
-12 -8 6 -25 15 -39 18 -17 5 -12 -1 16 -18 30 -19 51 -45 84 -106 24 -45 57
-92 73 -106 36 -31 96 -33 122 -4 32 35 15 90 -67 214 -41 61 -82 123 -91 138
-9 15 -27 33 -39 39 -19 10 -18 7 6 -17z"/>
<path d="M938 1653 c12 -2 30 -2 40 0 9 3 -1 5 -23 4 -22 0 -30 -2 -17 -4z"/>
<path d="M3823 1653 c9 -2 25 -2 35 0 9 3 1 5 -18 5 -19 0 -27 -2 -17 -5z"/>
<path d="M875 1640 c-3 -6 1 -7 9 -4 18 7 21 14 7 14 -6 0 -13 -4 -16 -10z"/>
<path d="M3890 1646 c0 -2 7 -7 16 -10 8 -3 12 -2 9 4 -6 10 -25 14 -25 6z"/>
<path d="M2751 843 c-63 -31 -76 -115 -32 -201 29 -57 40 -107 51 -237 17
-194 55 -251 195 -291 83 -23 258 -24 302 -1 27 14 39 15 82 5 38 -8 60 -9 87
0 23 7 45 7 61 1 63 -24 165 8 184 58 20 52 -8 143 -44 143 -6 0 -1 -10 10
-22 47 -52 38 -95 -27 -128 -22 -11 -41 -20 -44 -20 -3 0 -8 36 -12 81 -5 66
-11 86 -31 108 -24 25 -24 25 -9 1 25 -38 21 -112 -6 -137 -34 -31 -60 -40
-95 -36 -19 2 -33 0 -33 -6 0 -6 -6 -8 -13 -5 -10 3 -12 20 -9 59 2 30 -1 68
-7 86 -8 24 -8 36 1 48 10 13 10 14 -2 4 -11 -10 -20 -6 -47 17 -19 17 -39 30
-46 30 -7 0 2 -9 20 -20 70 -42 83 -132 27 -187 -16 -17 -81 -40 -129 -47 -46
-6 -165 10 -180 25 -5 5 -17 9 -27 9 -10 0 -18 5 -18 11 0 5 -4 7 -10 4 -5 -3
-10 1 -10 10 0 13 -4 14 -22 4 -19 -9 -21 -9 -10 2 16 17 15 30 -2 23 -8 -3
-17 0 -22 7 -5 8 -3 10 6 4 9 -5 11 -4 6 4 -6 9 -11 9 -24 -1 -10 -8 -13 -9
-9 -1 4 6 0 18 -8 26 -24 25 -34 60 -45 174 -9 84 -19 127 -46 193 -46 109
-47 115 -40 145 8 30 45 56 94 66 l37 7 -35 1 c-19 0 -50 -7 -69 -16z"/>
<path d="M2011 549 c-1 -9 -10 -28 -21 -42 -23 -29 -25 -37 -7 -37 22 0 89
-62 103 -97 12 -28 34 -46 34 -27 0 20 -47 78 -85 105 -42 30 -42 31 -28 60 8
16 12 35 10 42 -4 7 -6 6 -6 -4z"/>
<path d="M3151 544 c0 -11 3 -14 6 -6 3 7 2 16 -1 19 -3 4 -6 -2 -5 -13z"/>
<path d="M3160 515 c0 -15 63 -115 74 -115 5 0 2 8 -7 18 -8 9 -27 37 -41 62
-14 25 -26 41 -26 35z"/>
<path d="M1598 463 c7 -3 16 -2 19 1 4 3 -2 6 -13 5 -11 0 -14 -3 -6 -6z"/>
<path d="M1373 433 c9 -2 23 -2 30 0 6 3 -1 5 -18 5 -16 0 -22 -2 -12 -5z"/>
<path d="M3128 393 c7 -3 16 -2 19 1 4 3 -2 6 -13 5 -11 0 -14 -3 -6 -6z"/>
<path d="M3065 365 c-16 -13 -26 -24 -21 -25 4 0 21 11 38 25 16 14 26 25 21
25 -4 0 -21 -11 -38 -25z"/>
<path d="M2106 315 c4 -8 10 -15 15 -15 5 0 9 7 9 15 0 8 -7 15 -15 15 -9 0
-12 -6 -9 -15z"/>
</g>
</svg>
